#!OML:ASF I:\Actors\actors\Patient Classification 2\Patient 1\Session 1\actor1.ASF
:FULLY-SPECIFIED
:DEGREES
908
root -1.15886 18.804 5.3792 7.05241 5.99486 -1.48952
lowerback 24.4268 -1.07416 4.03164
upperback 7.62723 -0.259755 1.98767
thorax -5.17472 -0.116358 -0.075241
lowerneck -18.2115 -1.59229 -0.2977
upperneck 15.441 -2.35967 1.41642
head 7.78246 -0.994497 0.238638
rclavicle -2.78299e-015 -1.15295e-014
rhumerus -6.47215 51.0026 -99.7731
rradius 126.121
rwrist -5.51086
rhand -33.0879 -41.201
rfingers 7.12502
rthumb -6.29906 -71.0873
lclavicle -2.78299e-015 -1.15295e-014
lhumerus -11.0596 -46.2578 106.722
lradius 127.346
lwrist 25.1607
lhand -21.8215 327.552
lfingers 7.12502
lthumb 4.58113 -2.5173
rfemur 0.190625 -4.36726 17.9109
rtibia -6.36111e-015
rfoot -16.1787 -15.813
rtoes -9.30772
lfemur -19.0721 -4.03154 -9.82703
ltibia 27.9448
lfoot -14.0429 4.04967
ltoes -58.6077
909
root -1.10021 18.801 5.39672 7.03596 6.01384 -1.62535
lowerback 24.4209 -1.1224 3.96733
upperback 7.54058 -0.329021 2.05565
thorax -5.26868 -0.152875 0.055529
lowerneck -18.2409 -1.48738 -0.0362406
upperneck 15.565 -2.2398 1.16281
head 7.82142 -0.946312 0.125633
rclavicle 2.38542e-015 1.19271e-014
rhumerus -7.39849 52.0917 -100.476
rradius 125.868
rwrist -5.10566
rhand -34.4602 -40.504
rfingers 7.12502
rthumb -7.62382 -70.3466
lclavicle 2.38542e-015 1.19271e-014
lhumerus -10.8979 -45.6003 106.686
lradius 127.548
lwrist 25.1473
lhand -22.4943 326.906
lfingers 7.12502
lthumb 3.93148 -3.1509
rfemur 0.288523 -4.37904 17.855
rtibia 3.18055e-015
rfoot -16.2382 -15.7511
rtoes -9.71417
lfemur -19.0103 -3.96442 -9.88848
ltibia 28.008
lfoot -14.2453 3.94579
ltoes -58.6655
910
root -1.03535 18.793 5.41098 7.12817 5.91641 -1.76788
lowerback 24.3156 -1.1205 3.89714
upperback 7.43294 -0.3426 2.1055
thorax -5.33459 -0.16235 0.153305
lowerneck -18.3046 -1.42163 0.129822
upperneck 15.6651 -2.17083 1.0298
head 7.86183 -0.915913 0.0618614
rclavicle -3.97569e-015 5.1684e-015
rhumerus -7.26392 52.112 -100.22
rradius 125.687
rwrist -4.36881
rhand -34.1711 -40.6679
rfingers 7.12502
rthumb -7.34471 -70.5204
lclavicle -3.97569e-015 5.1684e-015
lhumerus -11.3002 -45.6004 107.081
lradius 127.638
lwrist 25.1083
lhand -22.5689 326.449
lfingers 7.12502
lthumb 3.85939 -3.60626
rfemur 0.239845 -4.2799 17.7801
rtibia -7.95139e-015
rfoot -16.289 -15.6717
rtoes -9.78721
lfemur -19.0796 -3.78232 -9.99581
ltibia 28.1231
lfoot -14.6198 3.95875
ltoes -58.5664
911
root -0.965149 18.7831 5.41932 7.3947 5.74292 -1.84627
lowerback 24.0343 -1.0639 3.79008
upperback 7.29551 -0.308533 2.09292
thorax -5.34427 -0.148051 0.188886
lowerneck -18.3413 -1.40453 0.15701
upperneck 15.6717 -2.18589 1.18624
head 7.87228 -0.905291 0.107292
rclavicle 6.75868e-015 2.78299e-015
rhumerus -6.13638 51.323 -99.1125
rradius 125.759
rwrist -4.18538
rhand -32.4816 -41.7534
rfingers 7.12502
rthumb -5.71376 -71.6564
lclavicle 6.75868e-015 2.78299e-015
lhumerus -12.1657 -46.3091 107.822
lradius 127.515
lwrist 24.7867
lhand -22.4967 325.961
lfingers 7.12502
lthumb 3.92916 -4.09554
rfemur -0.0352631 -4.12257 17.6193
rtibia 2.38542e-015
rfoot -16.2539 -15.6444
rtoes -9.45652
lfemur -19.3711 -3.60049 -10.2093
ltibia 28.2846
lfoot -15.0701 4.1546
ltoes -58.3391
912
root -0.893704 18.77 5.42635 7.29142 5.45885 -2.00441
lowerback 24.1698 -0.943618 3.71471
upperback 7.2527 -0.166856 2.06072
thorax -5.45608 -0.0819106 0.159079
lowerneck -18.2775 -1.43047 0.276982
upperneck 15.587 -2.28351 1.34981
head 7.83463 -0.928808 0.131097
rclavicle 1.43125e-014 -1.98785e-015
rhumerus -4.27981 49.978 -97.4672
rradius 125.951
rwrist -5.11897
rhand -33.4073 -41.2535
rfingers 7.12502
rthumb -6.60745 -71.1304
lclavicle 1.43125e-014 -1.98785e-015
lhumerus -13.3258 -47.6042 108.721
lradius 127.338
lwrist 24.5397
lhand -22.538 325.417
lfingers 7.12502
lthumb 3.88922 -4.63897
rfemur 0.0745128 -3.83051 17.5003
rtibia 1.74931e-014
rfoot -16.1992 -15.6198
rtoes -9.00466
lfemur -19.2534 -3.31046 -10.4069
ltibia 28.4586
lfoot -15.5497 4.38432
ltoes -58.1682
913
root -0.814399 18.7606 5.43228 7.37788 5.26257 -2.15516
lowerback 24.0807 -0.913952 3.73252
upperback 7.17838 -0.132748 2.00289
thorax -5.49229 -0.0668931 0.07625
lowerneck -18.259 -1.42132 0.361771
upperneck 15.6058 -2.32497 1.50836
head 7.83937 -0.927181 0.165
rclavicle -2.98177e-015 1.59028e-014
rhumerus -2.29347 48.2944 -95.8529
rradius 126.144
rwrist -6.37522
rhand -32.2621 -42.9538
rfingers 7.12502
rthumb -5.50181 -72.8624
lclavicle -2.98177e-015 1.59028e-014
lhumerus -14.674 -48.955 109.642
lradius 127.241
lwrist 24.7704
lhand -22.0446 325.891
lfingers 7.12502
lthumb 4.36566 -4.17402
rfemur -0.021431 -3.63654 17.3699
rtibia -7.15625e-015
rfoot -16.0871 -15.6465
rtoes -8.78422
lfemur -19.3736 -3.06069 -10.6111
ltibia 28.624
lfoot -15.9312 4.61838
ltoes -58.0511
